<svg width="305" height="484" viewBox="0 0 305 484" fill="none" xmlns="http://www.w3.org/2000/svg">
<rect x="70" width="220" height="40" rx="20" fill="#BFDBFE"/>
<rect x="40" y="50" width="200" height="40" rx="20" fill="#3D17D8" fill-opacity="0.77"/>
<path d="M119 70C119 80.4934 110.493 89 100 89C89.5066 89 81 80.4934 81 70C81 59.5066 89.5066 51 100 51C110.493 51 119 59.5066 119 70Z" fill="#F6771B" stroke="white" stroke-width="2"/>
<circle cx="20" cy="120" r="20" fill="#1EC944"/>
<rect x="70" y="100" width="200" height="40" rx="20" fill="#93C5FD"/>
<circle cx="179" cy="120" r="19" fill="#9747FF" stroke="white" stroke-width="2"/>
<circle cx="50" cy="170" r="20" fill="#3B82F6"/>
<rect x="80" y="150" width="120" height="40" rx="20" fill="#FF317B" fill-opacity="0.77"/>
<path d="M176.5 482.5C71.2303 472.474 69.5001 431.5 221.5 260.5C221.5 286 187.63 359.595 176.5 380C167.5 396.5 161 422 194 432.5C227 443 249 452.5 241.5 468C238.667 480.833 197.5 484.5 176.5 482.5Z" fill="#4EE5EF"/>
<path d="M140.5 458C98.0406 434.998 133.394 397.5 220.5 261.5C220.5 284.06 169.61 362.447 165 380.5C161.272 395.098 146.286 416.83 160 431C173.714 445.17 223.607 451.787 220.5 465.5C219.326 476.854 149.423 462.834 140.5 458Z" fill="#1E88C4"/>
<path d="M145.5 263C153.446 261.741 166.975 267.787 166.971 275.035C166.965 286.36 164.103 297.597 158.522 307.878C150.793 322.113 138.246 333.785 122.679 341.221C107.113 348.657 89.3254 351.474 71.8666 349.27C54.4078 347.066 38.174 339.953 25.4917 328.95C12.8095 317.948 4.32995 303.622 1.26844 288.024C-1.79308 272.426 0.720607 256.358 8.44921 242.122C16.1778 227.887 28.7246 216.215 44.2912 208.779C55.5334 203.409 67.9339 200.448 80.5323 200.047C88.5961 199.79 94.1938 206.549 93.0708 213.727C91.9479 220.905 84.4728 225.722 76.4716 226.659C70.0521 227.411 63.7947 229.193 58.0092 231.956C47.8909 236.79 39.7355 244.376 34.7119 253.63C29.6883 262.883 28.0544 273.327 30.0444 283.465C32.0344 293.604 37.5461 302.916 45.7895 310.068C54.033 317.219 64.585 321.843 75.9332 323.276C87.2814 324.708 98.8432 322.877 108.962 318.044C119.08 313.21 127.235 305.624 132.259 296.371C135.131 291.08 136.896 285.4 137.508 279.61C138.271 272.394 137.554 264.259 145.5 263Z" fill="#0B0436"/>
<path d="M159 289.5C151.054 290.759 138.025 282.213 138.029 274.965C138.035 263.387 141.026 251.906 146.851 241.445C154.867 227.05 167.826 215.353 183.812 208.084C199.798 200.815 217.964 198.359 235.624 201.079C253.284 203.799 269.501 211.552 281.878 223.19C294.256 234.828 302.137 249.735 304.357 265.708C306.577 281.68 303.017 297.871 294.205 311.886C285.393 325.901 271.796 336.997 255.423 343.535C243.526 348.286 230.622 350.446 217.748 349.924C209.687 349.597 204.713 342.456 206.475 335.382C208.237 328.308 216.119 324.047 224.178 323.691C230.825 323.398 237.397 322.006 243.555 319.548C254.197 315.298 263.036 308.086 268.764 298.976C274.491 289.866 276.805 279.342 275.362 268.96C273.919 258.578 268.796 248.888 260.751 241.323C252.706 233.758 242.164 228.72 230.686 226.951C219.207 225.183 207.399 226.779 197.008 231.504C186.617 236.229 178.193 243.832 172.983 253.19C169.968 258.603 168.122 264.438 167.492 270.39C166.729 277.606 166.946 288.241 159 289.5Z" fill="#0B0436"/>
<circle cx="221" cy="400" r="20" fill="#9747FF"/>
<circle cx="277" cy="400" r="20" fill="#9747FF"/>
</svg>
